# 3ds Max Wavefront OBJ Exporter v0.99 - (c)2007 guruware
# File Created: 17.11.2022 11:53:44

mtllib StarfoxInterceptor.mtl

#
# object Box002
#

v  0.0848 0.0649 0.0990
v  0.1038 0.1071 0.0990
v  0.0167 0.1071 0.5000
v  0.0081 0.0984 0.5000
v  0.0000 0.0750 -0.4846
v  0.0000 0.1068 -0.4846
v  0.0188 0.1068 -0.4846
v  0.0188 0.0750 -0.4846
v  0.0226 0.1451 -0.5000
v  0.0000 0.1451 -0.5000
v  0.0000 0.2043 -0.2811
v  0.0395 0.2043 -0.2811
v  0.2640 0.0833 -0.1491
v  0.2937 0.0854 -0.1796
v  0.2938 0.1072 -0.1796
v  0.2640 0.1072 -0.1491
v  0.0547 0.0000 -0.0838
v  0.1197 0.0497 -0.0838
v  0.0388 0.0284 0.0990
v  0.0081 0.1159 0.5000
v  0.0848 0.1494 0.0990
v  0.0388 0.1859 0.0990
v  0.0037 0.1235 0.5000
v  0.0037 0.1072 0.5000
v  0.0037 0.0908 0.5000
v  0.0369 0.1251 -0.4846
v  0.0609 0.1070 -0.4846
v  0.0188 0.1387 -0.4846
v  0.0478 0.0862 -0.5000
v  0.0857 0.0547 -0.2811
v  0.0395 0.0096 -0.2811
v  0.0226 0.0685 -0.5000
v  0.0647 0.1975 -0.0838
v  0.1197 0.1646 -0.0838
v  0.0841 0.1606 -0.2811
v  0.0000 0.1235 0.5000
v  0.0000 0.1072 0.5000
v  0.1436 0.1071 -0.0838
v  0.0732 0.1070 -0.5000
v  0.0445 0.1287 -0.5000
v  0.1102 0.1071 -0.2811
v  0.0398 0.0897 -0.4846
v  0.0000 0.0000 -0.0838
v  0.0000 0.0284 0.0990
v  0.0000 0.1859 0.0990
v  0.0000 0.0908 0.5000
v  0.0000 0.0096 -0.2811
v  0.0000 0.0685 -0.5000
v  0.0000 0.1387 -0.4846
v  0.0000 0.2542 -0.0845
v  0.0409 0.2374 -0.0845
v  0.0395 0.2177 -0.2462
v  0.0000 0.2177 -0.2462
v  0.2640 0.1311 -0.1491
v  0.2937 0.1295 -0.1796
v  0.1808 0.1311 -0.1388
v  0.1807 0.1295 -0.2262
v  0.1809 0.1072 -0.1388
v  0.1808 0.0833 -0.1388
v  0.1807 0.0854 -0.2262
v  0.1808 0.1072 -0.2262
v  0.1807 0.2602 -0.4855
v  0.1808 0.2619 -0.3982
v  0.2379 0.2619 -0.3982
v  0.2408 0.2602 -0.4855
v  0.2379 0.1072 -0.1388
v  0.2379 0.1311 -0.1388
v  0.2379 0.0833 -0.1388
v  0.1807 0.0103 -0.4689
v  0.2408 0.0103 -0.4689
v  0.2379 0.0083 -0.3815
v  0.1808 0.0083 -0.3815
v  0.2409 0.1072 -0.2262
v  0.2408 0.0854 -0.2262
v  0.2408 0.1295 -0.2262
v  0.2938 0.1072 -0.3803
v  0.2937 0.0854 -0.3803
v  0.2408 0.0854 -0.3803
v  0.2409 0.1072 -0.3803
v  0.2937 0.1295 -0.3803
v  0.2408 0.1295 -0.3803
v  0.4997 0.1072 -0.3301
v  0.4996 0.0854 -0.3301
v  0.4996 0.0854 -0.3803
v  0.4997 0.1072 -0.3803
v  0.4996 0.1295 -0.3301
v  0.4996 0.1295 -0.3803
v  0.0388 0.1994 0.0654
v  0.0000 0.1994 0.0654
v  -0.0848 0.0649 0.0990
v  -0.0081 0.0984 0.5000
v  -0.0167 0.1071 0.5000
v  -0.1038 0.1071 0.0990
v  -0.0188 0.0750 -0.4846
v  -0.0188 0.1068 -0.4846
v  -0.0226 0.1451 -0.5000
v  -0.0395 0.2043 -0.2811
v  -0.2640 0.0833 -0.1491
v  -0.2640 0.1072 -0.1491
v  -0.2938 0.1072 -0.1796
v  -0.2937 0.0854 -0.1796
v  -0.0547 0.0000 -0.0838
v  -0.0388 0.0284 0.0990
v  -0.1197 0.0497 -0.0838
v  -0.0081 0.1159 0.5000
v  -0.0037 0.1235 0.5000
v  -0.0388 0.1859 0.0990
v  -0.0848 0.1494 0.0990
v  -0.0037 0.0908 0.5000
v  -0.0037 0.1072 0.5000
v  -0.0369 0.1251 -0.4846
v  -0.0188 0.1387 -0.4846
v  -0.0609 0.1070 -0.4846
v  -0.0478 0.0862 -0.5000
v  -0.0226 0.0685 -0.5000
v  -0.0395 0.0096 -0.2811
v  -0.0857 0.0547 -0.2811
v  -0.0647 0.1975 -0.0838
v  -0.0841 0.1606 -0.2811
v  -0.1197 0.1646 -0.0838
v  -0.1436 0.1071 -0.0838
v  -0.0732 0.1070 -0.5000
v  -0.1102 0.1071 -0.2811
v  -0.0445 0.1287 -0.5000
v  -0.0398 0.0897 -0.4846
v  -0.0395 0.2177 -0.2462
v  -0.0409 0.2374 -0.0845
v  -0.2640 0.1311 -0.1491
v  -0.2937 0.1295 -0.1796
v  -0.1807 0.1295 -0.2262
v  -0.1808 0.1311 -0.1388
v  -0.1809 0.1072 -0.1388
v  -0.1808 0.0833 -0.1388
v  -0.1807 0.0854 -0.2262
v  -0.1808 0.1072 -0.2262
v  -0.1807 0.2602 -0.4855
v  -0.2408 0.2602 -0.4855
v  -0.2379 0.2619 -0.3982
v  -0.1808 0.2619 -0.3982
v  -0.2379 0.1311 -0.1388
v  -0.2379 0.1072 -0.1388
v  -0.2379 0.0833 -0.1388
v  -0.1807 0.0103 -0.4689
v  -0.1808 0.0083 -0.3815
v  -0.2379 0.0083 -0.3815
v  -0.2408 0.0103 -0.4689
v  -0.2408 0.0854 -0.2262
v  -0.2409 0.1072 -0.2262
v  -0.2408 0.1295 -0.2262
v  -0.2938 0.1072 -0.3803
v  -0.2409 0.1072 -0.3803
v  -0.2408 0.0854 -0.3803
v  -0.2937 0.0854 -0.3803
v  -0.2937 0.1295 -0.3803
v  -0.2408 0.1295 -0.3803
v  -0.4997 0.1072 -0.3301
v  -0.4997 0.1072 -0.3803
v  -0.4996 0.0854 -0.3803
v  -0.4996 0.0854 -0.3301
v  -0.4996 0.1295 -0.3301
v  -0.4996 0.1295 -0.3803
v  -0.0388 0.1994 0.0654
v  0.0419 0.1275 -0.5000
v  0.0213 0.1430 -0.5000
v  0.0690 0.1070 -0.5000
v  0.0451 0.0874 -0.5000
v  0.0213 0.0707 -0.5000
v  0.0000 0.0707 -0.5000
v  -0.0213 0.0707 -0.5000
v  -0.0451 0.0874 -0.5000
v  -0.0690 0.1070 -0.5000
v  -0.0419 0.1275 -0.5000
v  -0.0213 0.1430 -0.5000
v  0.0000 0.1430 -0.5000
v  0.0382 0.1257 -0.4846
v  0.0194 0.1398 -0.4846
v  0.0630 0.1070 -0.4846
v  0.0411 0.0891 -0.4846
v  0.0194 0.0739 -0.4846
v  0.0000 0.0739 -0.4846
v  -0.0194 0.0739 -0.4846
v  -0.0411 0.0891 -0.4846
v  -0.0630 0.1070 -0.4846
v  -0.0382 0.1257 -0.4846
v  -0.0194 0.1398 -0.4846
v  0.0000 0.1398 -0.4846
# 186 vertices

vn 0.6980 -0.2902 0.6547
vn 0.7360 -0.0000 0.6770
vn 0.6781 -0.0000 0.7350
vn 0.5725 -0.4985 0.6510
vn 0.0000 0.0000 -1.0000
vn 0.2222 0.5705 -0.7907
vn 0.0000 0.6216 -0.7834
vn 0.4068 0.6352 -0.6565
vn 0.2382 -0.0006 0.9712
vn 0.2383 -0.0006 0.9712
vn 0.2382 0.0000 0.9712
vn 0.3892 -0.9098 0.1443
vn 0.6448 -0.7548 0.1205
vn 0.5113 -0.5848 0.6297
vn 0.2731 -0.7252 0.6320
vn 0.6792 0.4480 0.5813
vn 0.5035 0.6220 0.5996
vn 0.3877 0.6956 0.6048
vn 0.4197 0.6550 0.6284
vn 0.0000 0.0000 1.0000
vn 0.4549 -0.4969 -0.7390
vn 0.5790 -0.5833 -0.5697
vn 0.3005 -0.7884 -0.5368
vn 0.2100 -0.5756 -0.7903
vn 0.6409 0.7624 0.0896
vn 0.5504 0.8245 0.1315
vn 0.5734 0.6178 -0.5381
vn 0.7050 0.2719 0.6551
vn 0.6980 0.2902 0.6547
vn 0.7405 -0.0000 0.6720
vn 0.6861 0.0096 -0.7274
vn 0.4547 0.5387 -0.7092
vn 0.6710 0.4160 -0.6137
vn 0.8170 0.0062 -0.5766
vn 0.0000 -0.9796 0.2007
vn 0.0000 -0.8094 0.5873
vn 0.0000 0.8094 0.5873
vn 0.0000 -0.8468 -0.5319
vn 0.0000 -0.6230 -0.7822
vn -0.0000 0.9932 0.1165
vn 0.4089 0.8915 0.1949
vn 0.1596 0.7565 -0.6343
vn 0.0000 0.6884 -0.7253
vn 0.6884 -0.3975 -0.6067
vn 0.4816 -0.5260 -0.7010
vn 0.4615 0.4875 -0.7412
vn 0.2382 0.0006 0.9712
vn 0.2383 0.0007 0.9712
vn 0.4170 0.8196 -0.3929
vn 0.3475 0.9338 -0.0853
vn 0.3295 0.1222 0.9362
vn 0.2109 0.0006 0.9775
vn 0.2674 -0.0992 0.9585
vn 0.3322 -0.0009 0.9432
vn 0.3603 -0.8601 -0.3612
vn 0.5057 -0.8572 -0.0975
vn 0.1828 -0.0766 -0.9802
vn 0.1373 -0.0004 -0.9905
vn 0.1591 0.0697 -0.9848
vn 0.1833 0.0006 -0.9831
vn 0.0000 0.9960 -0.0889
vn -0.0000 -0.9939 -0.1100
vn 0.0287 0.9903 -0.1362
vn -0.0085 0.9959 -0.0901
vn 0.0940 0.0002 0.9956
vn 0.0938 0.0000 0.9956
vn 0.0938 -0.0002 0.9956
vn 0.0940 -0.0000 0.9956
vn 0.0354 -0.9852 -0.1679
vn -0.0105 -0.9937 -0.1115
vn 1.0000 -0.0027 -0.0000
vn 0.0000 -1.0000 -0.0000
vn -1.0000 0.0004 0.0000
vn -1.0000 -0.0004 0.0000
vn 0.0000 1.0000 -0.0000
vn 1.0000 0.0028 -0.0000
vn 0.1724 -0.0005 0.9850
vn 0.0000 -0.0000 -1.0000
vn 0.1724 0.0005 0.9850
vn -1.0000 0.0022 0.0052
vn -1.0000 0.0022 0.0053
vn 0.0000 0.3913 0.9203
vn 0.9893 0.0571 0.1342
vn 0.0000 -0.3913 -0.9203
vn -1.0000 -0.0033 0.0048
vn -1.0000 -0.0034 0.0048
vn 0.0000 0.5697 -0.8219
vn 0.9876 -0.0895 0.1291
vn -0.0000 -0.5697 0.8219
vn 0.7050 -0.2719 0.6551
vn 0.6789 -0.4483 0.5815
vn 0.4193 -0.6552 0.6284
vn 0.5725 0.4985 0.6510
vn 0.0976 0.5478 0.8309
vn 0.0000 0.5050 0.8631
vn 0.8727 0.2372 -0.4268
vn 0.8464 0.4487 -0.2868
vn 0.0000 0.4857 -0.8741
vn 0.0000 0.4717 0.8818
vn 0.7357 0.3929 0.5517
vn 0.9827 0.0873 0.1632
vn -0.6980 -0.2902 0.6547
vn -0.5725 -0.4985 0.6510
vn -0.6781 -0.0000 0.7350
vn -0.7360 -0.0000 0.6770
vn -0.2222 0.5705 -0.7907
vn -0.4068 0.6352 -0.6565
vn -0.2382 -0.0006 0.9712
vn -0.2382 0.0000 0.9712
vn -0.2383 -0.0006 0.9712
vn -0.3892 -0.9098 0.1443
vn -0.2731 -0.7252 0.6320
vn -0.5113 -0.5848 0.6297
vn -0.6448 -0.7548 0.1205
vn -0.6792 0.4480 0.5813
vn -0.4197 0.6550 0.6284
vn -0.3877 0.6956 0.6048
vn -0.5035 0.6220 0.5996
vn -0.4549 -0.4969 -0.7390
vn -0.2100 -0.5756 -0.7903
vn -0.3005 -0.7884 -0.5368
vn -0.5790 -0.5833 -0.5697
vn -0.6409 0.7624 0.0896
vn -0.5734 0.6178 -0.5381
vn -0.5504 0.8245 0.1315
vn -0.7050 0.2719 0.6551
vn -0.7405 -0.0000 0.6720
vn -0.6980 0.2902 0.6547
vn -0.6861 0.0096 -0.7274
vn -0.8170 0.0062 -0.5766
vn -0.6710 0.4160 -0.6137
vn -0.4547 0.5387 -0.7092
vn -0.1596 0.7565 -0.6343
vn -0.4089 0.8915 0.1949
vn -0.6884 -0.3975 -0.6067
vn -0.4816 -0.5260 -0.7010
vn -0.4615 0.4875 -0.7412
vn -0.2382 0.0006 0.9712
vn -0.2383 0.0007 0.9712
vn -0.3475 0.9338 -0.0853
vn -0.4170 0.8196 -0.3929
vn -0.2109 0.0006 0.9775
vn -0.3295 0.1222 0.9362
vn -0.3322 -0.0009 0.9432
vn -0.2674 -0.0992 0.9585
vn -0.5057 -0.8572 -0.0975
vn -0.3603 -0.8601 -0.3612
vn -0.1373 -0.0004 -0.9905
vn -0.1828 -0.0766 -0.9802
vn -0.1833 0.0006 -0.9831
vn -0.1591 0.0697 -0.9848
vn 0.0000 -0.9939 -0.1100
vn 0.0085 0.9959 -0.0901
vn -0.0287 0.9903 -0.1362
vn -0.0938 0.0000 0.9956
vn -0.0940 0.0002 0.9956
vn -0.0940 -0.0000 0.9956
vn -0.0938 -0.0002 0.9956
vn 0.0105 -0.9937 -0.1115
vn -0.0354 -0.9852 -0.1679
vn -1.0000 -0.0027 -0.0000
vn 1.0000 0.0004 0.0000
vn 1.0000 -0.0004 0.0000
vn -0.0000 1.0000 -0.0000
vn -1.0000 0.0028 -0.0000
vn -0.1724 -0.0005 0.9850
vn -0.0000 -0.0000 -1.0000
vn -0.0000 0.0000 -1.0000
vn -0.1724 0.0005 0.9850
vn 1.0000 0.0022 0.0053
vn 1.0000 0.0022 0.0052
vn -0.9893 0.0571 0.1342
vn 1.0000 -0.0034 0.0048
vn 1.0000 -0.0033 0.0048
vn -0.0000 0.5697 -0.8219
vn -0.9876 -0.0895 0.1291
vn 0.0000 -0.5697 0.8219
vn -0.7050 -0.2719 0.6551
vn -0.6789 -0.4483 0.5815
vn -0.4193 -0.6552 0.6284
vn -0.5725 0.4985 0.6510
vn -0.0976 0.5478 0.8309
vn -0.8464 0.4487 -0.2868
vn -0.8727 0.2372 -0.4268
vn -0.9827 0.0873 0.1632
vn -0.7357 0.3929 0.5517
vn -0.4396 -0.5246 -0.7291
vn -0.4411 -0.5226 -0.7295
vn -0.4512 0.4928 -0.7440
vn -0.4198 0.5358 -0.7326
vn 0.0000 0.7184 -0.6956
vn 0.4198 0.5358 -0.7326
vn 0.4512 0.4928 -0.7440
vn 0.4411 -0.5226 -0.7295
vn 0.4396 -0.5246 -0.7291
vn 0.0000 -0.7203 -0.6936
# 196 vertex normals

vt 0.4010 0.0000 0.0000
vt 0.4010 0.5000 0.0000
vt 0.0000 0.5000 0.0000
vt 0.0000 0.0000 0.0000
vt 0.5000 0.0000 0.0000
vt 0.5000 0.5000 0.0000
vt 0.2714 0.5000 0.0000
vt 0.2714 0.0000 0.0000
vt 0.7286 1.0000 0.0000
vt 0.5000 1.0000 0.0000
vt 0.5000 0.7811 0.0000
vt 0.7286 0.7811 0.0000
vt 0.5838 0.0000 0.0000
vt 0.7811 0.0000 0.0000
vt 0.7811 0.5000 0.0000
vt 0.5838 0.5000 0.0000
vt 0.2714 0.5838 0.0000
vt 0.0000 0.5838 0.0000
vt 0.0000 0.4010 0.0000
vt 0.2714 0.4010 0.0000
vt 1.0000 0.0000 0.0000
vt 1.0000 0.4010 0.0000
vt 0.7286 0.4010 0.0000
vt 0.7286 0.0000 0.0000
vt 1.0000 0.5000 0.0000
vt 0.7286 0.5000 0.0000
vt 0.0000 1.0000 0.0000
vt 0.2714 1.0000 0.0000
vt 0.0000 0.7811 0.0000
vt 0.2714 0.7811 0.0000
vt 0.7286 0.5838 0.0000
vt 1.0000 0.5838 0.0000
vt 1.0000 0.7811 0.0000
vt 0.5838 1.0000 0.0000
vt 0.4010 1.0000 0.0000
vt 1.0000 1.0000 0.0000
vt 0.7811 1.0000 0.0000
vt 0.5000 0.5838 0.0000
vt 0.5000 0.4010 0.0000
# 39 texture coords

o Box002
g Box002
usemtl wire_045045045
s 16
f 1/1/1 2/2/2 3/3/3 
f 3/3/3 4/4/4 1/1/1 
s 32
f 5/5/5 6/6/5 7/7/5 
f 7/7/5 8/8/5 5/5/5 
s 4
f 9/9/6 10/10/7 11/11/7 
f 11/11/7 12/12/8 9/9/6 
s 16
f 13/13/9 14/14/10 15/15/11 
f 15/15/11 16/16/11 13/13/9 
s 2
f 17/17/12 18/18/13 1/19/14 
f 1/19/14 19/20/15 17/17/12 
s 4
f 20/21/16 21/22/17 22/23/18 
f 22/23/18 23/24/19 20/21/16 
s 8
f 4/21/20 3/25/20 24/26/20 
f 24/26/20 25/24/20 4/21/20 
s 32
f 26/27/5 27/3/5 7/7/5 
f 7/7/5 28/28/5 26/27/5 
s 2
f 29/27/21 30/29/22 31/30/23 
f 31/30/23 32/28/24 29/27/21 
s 4
f 33/31/25 34/32/26 35/33/27 
f 35/33/27 12/12/8 33/31/25 
s 8
f 23/9/20 36/10/20 37/6/20 
f 37/6/20 24/26/20 23/9/20 
s 16
f 34/34/28 21/35/29 2/2/2 
f 2/2/2 38/16/30 34/34/28 
f 39/25/31 40/36/32 35/37/33 
f 35/37/33 41/15/34 39/25/31 
s 8
f 20/36/20 23/9/20 24/26/20 
f 24/26/20 3/25/20 20/36/20 
s 32
f 42/4/5 8/8/5 7/7/5 
f 7/7/5 27/3/5 42/4/5 
s 2
f 43/38/35 17/17/12 19/20/15 
f 19/20/15 44/39/36 43/38/35 
s 4
f 23/24/19 22/23/18 45/39/37 
f 45/39/37 36/5/37 23/24/19 
s 8
f 25/24/20 24/26/20 37/6/20 
f 37/6/20 46/5/20 25/24/20 
s 2
f 32/28/24 31/30/23 47/11/38 
f 47/11/38 48/10/39 32/28/24 
s 32
f 28/28/5 7/7/5 6/6/5 
f 6/6/5 49/10/5 28/28/5 
s 4
f 50/38/40 51/31/41 52/12/42 
f 52/12/42 53/11/43 50/38/40 
s 16
f 30/14/44 29/21/45 39/25/31 
f 39/25/31 41/15/34 30/14/44 
s 2
f 30/29/22 18/18/13 17/17/12 
f 17/17/12 31/30/23 30/29/22 
s 4
f 40/36/46 9/9/6 12/12/8 
f 12/12/8 35/33/27 40/36/46 
s 16
f 54/34/47 16/16/11 15/15/11 
f 15/15/11 55/37/48 54/34/47 
s 2
f 31/30/23 17/17/12 43/38/35 
f 43/38/35 47/11/38 31/30/23 
s off
f 35/37/49 34/34/49 56/34/49 
f 56/34/50 57/37/50 35/37/50 
f 34/34/51 38/16/51 58/16/51 
f 58/16/52 56/34/52 34/34/52 
f 38/16/53 18/13/53 59/13/53 
f 59/13/54 58/16/54 38/16/54 
f 18/13/55 30/14/55 60/14/55 
f 60/14/56 59/13/56 18/13/56 
f 30/14/57 41/15/57 61/15/57 
f 61/15/58 60/14/58 30/14/58 
f 41/15/59 35/37/59 57/37/59 
f 57/37/60 61/15/60 41/15/60 
f 62/37/61 63/34/61 64/34/61 
f 64/34/61 65/37/61 62/37/61 
f 58/16/20 66/16/20 67/34/20 
f 67/34/20 56/34/20 58/16/20 
f 59/13/20 68/13/20 66/16/20 
f 66/16/20 58/16/20 59/13/20 
f 69/14/62 70/14/62 71/13/62 
f 71/13/62 72/13/62 69/14/62 
f 61/15/5 73/15/5 74/14/5 
f 74/14/5 60/14/5 61/15/5 
f 57/37/5 75/37/5 73/15/5 
f 73/15/5 61/15/5 57/37/5 
f 54/34/63 55/37/63 75/37/63 
f 75/37/64 67/34/64 54/34/64 
f 16/16/65 54/34/65 67/34/65 
f 67/34/66 66/16/66 16/16/66 
f 13/13/67 16/16/67 66/16/67 
f 66/16/68 68/13/68 13/13/68 
f 74/14/69 14/14/69 13/13/69 
f 13/13/70 68/13/70 74/14/70 
f 76/15/5 77/14/5 78/14/5 
f 78/14/5 79/15/5 76/15/5 
f 80/37/5 76/15/5 79/15/5 
f 79/15/5 81/37/5 80/37/5 
f 82/15/71 83/14/71 84/14/71 
f 84/14/71 85/15/71 82/15/71 
f 14/14/72 74/14/72 78/14/72 
f 78/14/72 77/14/72 14/14/72 
f 74/14/73 73/15/73 79/15/73 
f 79/15/73 78/14/73 74/14/73 
f 73/15/74 75/37/74 81/37/74 
f 81/37/74 79/15/74 73/15/74 
f 75/37/75 55/37/75 80/37/75 
f 80/37/75 81/37/75 75/37/75 
f 86/37/76 82/15/76 85/15/76 
f 85/15/76 87/37/76 86/37/76 
f 15/15/77 14/14/77 83/14/77 
f 83/14/77 82/15/77 15/15/77 
f 14/14/72 77/14/72 84/14/72 
f 84/14/72 83/14/72 14/14/72 
f 77/14/78 76/15/78 85/15/78 
f 85/15/78 84/14/78 77/14/78 
f 76/15/5 80/37/5 87/37/5 
f 87/37/5 85/15/5 76/15/5 
f 80/37/75 55/37/75 86/37/75 
f 86/37/75 87/37/75 80/37/75 
f 55/37/79 15/15/79 82/15/79 
f 82/15/79 86/37/79 55/37/79 
f 57/37/80 56/34/80 63/34/80 
f 63/34/81 62/37/81 57/37/81 
f 56/34/82 67/34/82 64/34/82 
f 64/34/82 63/34/82 56/34/82 
f 67/34/83 75/37/83 65/37/83 
f 65/37/83 64/34/83 67/34/83 
f 75/37/84 57/37/84 62/37/84 
f 62/37/84 65/37/84 75/37/84 
f 59/13/85 60/14/85 69/14/85 
f 69/14/86 72/13/86 59/13/86 
f 60/14/87 74/14/87 70/14/87 
f 70/14/87 69/14/87 60/14/87 
f 74/14/88 68/13/88 71/13/88 
f 71/13/88 70/14/88 74/14/88 
f 68/13/89 59/13/89 72/13/89 
f 72/13/89 71/13/89 68/13/89 
s 16
f 18/13/90 38/16/30 2/2/2 
f 2/2/2 1/1/1 18/13/90 
s 2
f 4/4/91 25/8/92 19/20/15 
f 19/20/15 1/19/14 4/4/91 
s 4
f 21/22/17 34/32/26 33/31/25 
f 33/31/25 22/23/18 21/22/17 
s 16
f 21/35/29 20/27/93 3/3/3 
f 3/3/3 2/2/2 21/35/29 
s 2
f 25/8/92 46/5/36 44/39/36 
f 44/39/36 19/20/15 25/8/92 
s 4
f 88/23/94 51/31/41 50/38/40 
f 50/38/40 89/39/95 88/23/94 
s off
f 33/31/96 12/12/96 52/12/96 
f 52/12/97 51/31/97 33/31/97 
f 12/12/98 11/11/98 53/11/98 
f 53/11/98 52/12/98 12/12/98 
f 45/39/99 22/23/99 88/23/99 
f 88/23/99 89/39/99 45/39/99 
f 22/23/100 33/31/100 51/31/100 
f 51/31/101 88/23/101 22/23/101 
s 16
f 90/1/102 91/4/103 92/3/104 
f 92/3/104 93/2/105 90/1/102 
s 32
f 5/5/5 94/8/5 95/7/5 
f 95/7/5 6/6/5 5/5/5 
s 4
f 96/9/106 97/12/107 11/11/7 
f 11/11/7 10/10/7 96/9/106 
s 16
f 98/13/108 99/16/109 100/15/109 
f 100/15/109 101/14/110 98/13/108 
s 2
f 102/17/111 103/20/112 90/19/113 
f 90/19/113 104/18/114 102/17/111 
s 4
f 105/21/115 106/24/116 107/23/117 
f 107/23/117 108/22/118 105/21/115 
s 8
f 91/21/20 109/24/20 110/26/20 
f 110/26/20 92/25/20 91/21/20 
s 32
f 111/27/5 112/28/5 95/7/5 
f 95/7/5 113/3/5 111/27/5 
s 2
f 114/27/119 115/28/120 116/30/121 
f 116/30/121 117/29/122 114/27/119 
s 4
f 118/31/123 97/12/107 119/33/124 
f 119/33/124 120/32/125 118/31/123 
s 8
f 106/9/20 110/26/20 37/6/20 
f 37/6/20 36/10/20 106/9/20 
s 16
f 120/34/126 121/16/127 93/2/105 
f 93/2/105 108/35/128 120/34/126 
f 122/25/129 123/15/130 119/37/131 
f 119/37/131 124/36/132 122/25/129 
s 8
f 105/36/20 92/25/20 110/26/20 
f 110/26/20 106/9/20 105/36/20 
s 32
f 125/4/5 113/3/5 95/7/5 
f 95/7/5 94/8/5 125/4/5 
s 2
f 43/38/35 44/39/36 103/20/112 
f 103/20/112 102/17/111 43/38/35 
s 4
f 106/24/116 36/5/37 45/39/37 
f 45/39/37 107/23/117 106/24/116 
s 8
f 109/24/20 46/5/20 37/6/20 
f 37/6/20 110/26/20 109/24/20 
s 2
f 115/28/120 48/10/39 47/11/38 
f 47/11/38 116/30/121 115/28/120 
s 32
f 112/28/5 49/10/5 6/6/5 
f 6/6/5 95/7/5 112/28/5 
s 4
f 50/38/40 53/11/43 126/12/133 
f 126/12/133 127/31/134 50/38/40 
s 16
f 117/14/135 123/15/130 122/25/129 
f 122/25/129 114/21/136 117/14/135 
s 2
f 117/29/122 116/30/121 102/17/111 
f 102/17/111 104/18/114 117/29/122 
s 4
f 124/36/137 119/33/124 97/12/107 
f 97/12/107 96/9/106 124/36/137 
s 16
f 128/34/138 129/37/139 100/15/109 
f 100/15/109 99/16/109 128/34/138 
s 2
f 116/30/121 47/11/38 43/38/35 
f 43/38/35 102/17/111 116/30/121 
s off
f 119/37/140 130/37/140 131/34/140 
f 131/34/141 120/34/141 119/37/141 
f 120/34/142 131/34/142 132/16/142 
f 132/16/143 121/16/143 120/34/143 
f 121/16/144 132/16/144 133/13/144 
f 133/13/145 104/13/145 121/16/145 
f 104/13/146 133/13/146 134/14/146 
f 134/14/147 117/14/147 104/13/147 
f 117/14/148 134/14/148 135/15/148 
f 135/15/149 123/15/149 117/14/149 
f 123/15/150 135/15/150 130/37/150 
f 130/37/151 119/37/151 123/15/151 
f 136/37/61 137/37/61 138/34/61 
f 138/34/61 139/34/61 136/37/61 
f 132/16/20 131/34/20 140/34/20 
f 140/34/20 141/16/20 132/16/20 
f 133/13/20 132/16/20 141/16/20 
f 141/16/20 142/13/20 133/13/20 
f 143/14/152 144/13/152 145/13/152 
f 145/13/152 146/14/152 143/14/152 
f 135/15/5 134/14/5 147/14/5 
f 147/14/5 148/15/5 135/15/5 
f 130/37/5 135/15/5 148/15/5 
f 148/15/5 149/37/5 130/37/5 
f 128/34/153 140/34/153 149/37/153 
f 149/37/154 129/37/154 128/34/154 
f 99/16/155 141/16/155 140/34/155 
f 140/34/156 128/34/156 99/16/156 
f 98/13/157 142/13/157 141/16/157 
f 141/16/158 99/16/158 98/13/158 
f 147/14/159 142/13/159 98/13/159 
f 98/13/160 101/14/160 147/14/160 
f 150/15/5 151/15/5 152/14/5 
f 152/14/5 153/14/5 150/15/5 
f 154/37/5 155/37/5 151/15/5 
f 151/15/5 150/15/5 154/37/5 
f 156/15/161 157/15/161 158/14/161 
f 158/14/161 159/14/161 156/15/161 
f 101/14/72 153/14/72 152/14/72 
f 152/14/72 147/14/72 101/14/72 
f 147/14/162 152/14/162 151/15/162 
f 151/15/162 148/15/162 147/14/162 
f 148/15/163 151/15/163 155/37/163 
f 155/37/163 149/37/163 148/15/163 
f 149/37/164 155/37/164 154/37/164 
f 154/37/164 129/37/164 149/37/164 
f 160/37/165 161/37/165 157/15/165 
f 157/15/165 156/15/165 160/37/165 
f 100/15/166 156/15/166 159/14/166 
f 159/14/166 101/14/166 100/15/166 
f 101/14/72 159/14/72 158/14/72 
f 158/14/72 153/14/72 101/14/72 
f 153/14/167 158/14/167 157/15/167 
f 157/15/167 150/15/167 153/14/167 
f 150/15/168 157/15/168 161/37/168 
f 161/37/168 154/37/168 150/15/168 
f 154/37/75 161/37/75 160/37/75 
f 160/37/75 129/37/75 154/37/75 
f 129/37/169 160/37/169 156/15/169 
f 156/15/169 100/15/169 129/37/169 
f 130/37/170 136/37/170 139/34/170 
f 139/34/171 131/34/171 130/37/171 
f 131/34/82 139/34/82 138/34/82 
f 138/34/82 140/34/82 131/34/82 
f 140/34/172 138/34/172 137/37/172 
f 137/37/172 149/37/172 140/34/172 
f 149/37/84 137/37/84 136/37/84 
f 136/37/84 130/37/84 149/37/84 
f 133/13/173 144/13/173 143/14/173 
f 143/14/174 134/14/174 133/13/174 
f 134/14/175 143/14/175 146/14/175 
f 146/14/175 147/14/175 134/14/175 
f 147/14/176 146/14/176 145/13/176 
f 145/13/176 142/13/176 147/14/176 
f 142/13/177 145/13/177 144/13/177 
f 144/13/177 133/13/177 142/13/177 
s 16
f 104/13/178 90/1/102 93/2/105 
f 93/2/105 121/16/127 104/13/178 
s 2
f 91/4/179 90/19/113 103/20/112 
f 103/20/112 109/8/180 91/4/179 
s 4
f 108/22/118 107/23/117 118/31/123 
f 118/31/123 120/32/125 108/22/118 
s 16
f 108/35/128 93/2/105 92/3/104 
f 92/3/104 105/27/181 108/35/128 
s 2
f 109/8/180 103/20/112 44/39/36 
f 44/39/36 46/5/36 109/8/180 
s 4
f 162/23/182 89/39/95 50/38/40 
f 50/38/40 127/31/134 162/23/182 
s off
f 118/31/183 127/31/183 126/12/183 
f 126/12/184 97/12/184 118/31/184 
f 97/12/98 126/12/98 53/11/98 
f 53/11/98 11/11/98 97/12/98 
f 45/39/99 89/39/99 162/23/99 
f 162/23/99 107/23/99 45/39/99 
f 107/23/185 162/23/185 127/31/185 
f 127/31/186 118/31/186 107/23/186 
f 9/28/5 40/27/5 163/27/5 
f 163/27/5 164/28/5 9/28/5 
f 40/27/5 39/3/5 165/3/5 
f 165/3/5 163/27/5 40/27/5 
f 39/3/5 29/4/5 166/4/5 
f 166/4/5 165/3/5 39/3/5 
f 29/4/5 32/8/5 167/8/5 
f 167/8/5 166/4/5 29/4/5 
f 32/8/5 48/5/5 168/5/5 
f 168/5/5 167/8/5 32/8/5 
f 48/5/5 115/8/5 169/8/5 
f 169/8/5 168/5/5 48/5/5 
f 115/8/5 114/4/5 170/4/5 
f 170/4/5 169/8/5 115/8/5 
f 114/4/5 122/3/5 171/3/5 
f 171/3/5 170/4/5 114/4/5 
f 122/3/5 124/27/5 172/27/5 
f 172/27/5 171/3/5 122/3/5 
f 124/27/5 96/28/5 173/28/5 
f 173/28/5 172/27/5 124/27/5 
f 96/28/5 10/10/5 174/10/5 
f 174/10/5 173/28/5 96/28/5 
f 10/10/5 9/28/5 164/28/5 
f 164/28/5 174/10/5 10/10/5 
f 164/28/187 163/27/187 175/27/187 
f 175/27/187 176/28/187 164/28/187 
f 163/27/188 165/3/188 177/3/188 
f 177/3/188 175/27/188 163/27/188 
f 165/3/189 166/4/189 178/4/189 
f 178/4/189 177/3/189 165/3/189 
f 166/4/190 167/8/190 179/8/190 
f 179/8/190 178/4/190 166/4/190 
f 167/8/191 168/5/191 180/5/191 
f 180/5/191 179/8/191 167/8/191 
f 168/5/191 169/8/191 181/8/191 
f 181/8/191 180/5/191 168/5/191 
f 169/8/192 170/4/192 182/4/192 
f 182/4/192 181/8/192 169/8/192 
f 170/4/193 171/3/193 183/3/193 
f 183/3/193 182/4/193 170/4/193 
f 171/3/194 172/27/194 184/27/194 
f 184/27/194 183/3/194 171/3/194 
f 172/27/195 173/28/195 185/28/195 
f 185/28/195 184/27/195 172/27/195 
f 173/28/196 174/10/196 186/10/196 
f 186/10/196 185/28/196 173/28/196 
f 174/10/196 164/28/196 176/28/196 
f 176/28/196 186/10/196 174/10/196 
f 176/28/5 175/27/5 26/27/5 
f 26/27/5 28/28/5 176/28/5 
f 175/27/5 177/3/5 27/3/5 
f 27/3/5 26/27/5 175/27/5 
f 177/3/5 178/4/5 42/4/5 
f 42/4/5 27/3/5 177/3/5 
f 178/4/5 179/8/5 8/8/5 
f 8/8/5 42/4/5 178/4/5 
f 179/8/5 180/5/5 5/5/5 
f 5/5/5 8/8/5 179/8/5 
f 180/5/5 181/8/5 94/8/5 
f 94/8/5 5/5/5 180/5/5 
f 181/8/5 182/4/5 125/4/5 
f 125/4/5 94/8/5 181/8/5 
f 182/4/5 183/3/5 113/3/5 
f 113/3/5 125/4/5 182/4/5 
f 183/3/5 184/27/5 111/27/5 
f 111/27/5 113/3/5 183/3/5 
f 184/27/5 185/28/5 112/28/5 
f 112/28/5 111/27/5 184/27/5 
f 185/28/5 186/10/5 49/10/5 
f 49/10/5 112/28/5 185/28/5 
f 186/10/5 176/28/5 28/28/5 
f 28/28/5 49/10/5 186/10/5 
# 368 faces

