# Blender v2.81 (sub 16) OBJ File: ''
# www.blender.org
mtllib untitled.mtl
o Box002
v 0.084800 0.063497 0.099905
v 0.103800 0.105693 0.100501
v 0.016700 0.100038 0.501461
v 0.008100 0.091339 0.501338
v 0.000000 0.081827 -0.483494
v 0.000000 0.113623 -0.483046
v 0.018800 0.113623 -0.483046
v 0.018800 0.081827 -0.483494
v 0.022600 0.152137 -0.497904
v 0.000000 0.152137 -0.497904
v 0.000000 0.208244 -0.278191
v 0.039500 0.208244 -0.278191
v 0.264000 0.085394 -0.147910
v 0.293700 0.087924 -0.178378
v 0.293800 0.109722 -0.178070
v 0.264000 0.109292 -0.147573
v 0.054700 0.001182 -0.083792
v 0.119700 0.050877 -0.083091
v 0.038800 0.027001 0.099391
v 0.005500 0.108867 0.499485
v 0.084800 0.147989 0.101097
v 0.038800 0.184485 0.101612
v 0.003700 0.116436 0.501692
v 0.003700 0.100138 0.501462
v 0.003700 0.083740 0.501231
v 0.036900 0.131922 -0.482788
v 0.060900 0.113823 -0.483043
v 0.018800 0.145520 -0.482596
v 0.047800 0.093243 -0.498735
v 0.085700 0.058659 -0.280301
v 0.039500 0.013563 -0.280937
v 0.022600 0.075544 -0.498984
v 0.064700 0.198662 -0.081006
v 0.119700 0.165765 -0.081470
v 0.084100 0.164548 -0.278807
v 0.000000 0.116436 0.501692
v 0.000000 0.100138 0.501462
v 0.143600 0.108271 -0.082281
v 0.073200 0.114041 -0.498441
v 0.044500 0.135738 -0.498135
v 0.110200 0.111054 -0.279562
v 0.039800 0.096525 -0.483287
v 0.000000 0.001182 -0.083792
v 0.000000 0.027001 0.099391
v 0.000000 0.184485 0.101612
v 0.000000 0.083740 0.501231
v 0.000000 0.013563 -0.280937
v 0.000000 0.075544 -0.498984
v 0.000000 0.145520 -0.482596
v 0.000000 0.255366 -0.080907
v 0.040900 0.238568 -0.081144
v 0.039500 0.221150 -0.243105
v 0.000000 0.221150 -0.243105
v 0.264000 0.133190 -0.147236
v 0.293700 0.132020 -0.177756
v 0.180800 0.133044 -0.136937
v 0.180700 0.132677 -0.224351
v 0.180900 0.109147 -0.137274
v 0.180800 0.085249 -0.137611
v 0.180700 0.088581 -0.224973
v 0.180800 0.110379 -0.224666
v 0.180700 0.267021 -0.481782
v 0.180800 0.267490 -0.394467
v 0.237900 0.267490 -0.394467
v 0.240800 0.267021 -0.481782
v 0.237900 0.109147 -0.137274
v 0.237900 0.133044 -0.136937
v 0.237900 0.085249 -0.137611
v 0.180700 0.016912 -0.468708
v 0.240800 0.016912 -0.468708
v 0.237900 0.013679 -0.381345
v 0.180800 0.013679 -0.381345
v 0.240900 0.110379 -0.224666
v 0.240800 0.088581 -0.224973
v 0.240800 0.132677 -0.224351
v 0.293800 0.112553 -0.378750
v 0.293700 0.090755 -0.379058
v 0.240800 0.090755 -0.379058
v 0.240900 0.112553 -0.378750
v 0.293700 0.134850 -0.378436
v 0.240800 0.134850 -0.378436
v 0.499700 0.111845 -0.328555
v 0.499600 0.090047 -0.328863
v 0.499600 0.090755 -0.379058
v 0.499700 0.112553 -0.378750
v 0.499600 0.134142 -0.328241
v 0.499600 0.134850 -0.378436
v 0.038800 0.198458 0.068206
v 0.000000 0.198458 0.068206
v -0.084800 0.063497 0.099905
v -0.008100 0.091339 0.501338
v -0.016700 0.100038 0.501461
v -0.103800 0.105693 0.100501
v -0.018800 0.081827 -0.483494
v -0.018800 0.113623 -0.483046
v -0.022600 0.152137 -0.497904
v -0.039500 0.208244 -0.278191
v -0.264000 0.085394 -0.147910
v -0.264000 0.109292 -0.147573
v -0.293800 0.109722 -0.178070
v -0.293700 0.087924 -0.178378
v -0.054700 0.001182 -0.083792
v -0.038800 0.027001 0.099391
v -0.119700 0.050877 -0.083091
v -0.008100 0.108837 0.501585
v -0.003700 0.116436 0.501692
v -0.038800 0.184485 0.101612
v -0.084800 0.147989 0.101097
v -0.003700 0.083740 0.501231
v -0.003700 0.100138 0.501462
v -0.036900 0.131922 -0.482788
v -0.018800 0.145520 -0.482596
v -0.060900 0.113823 -0.483043
v -0.047800 0.093243 -0.498735
v -0.022600 0.075544 -0.498984
v -0.039500 0.013563 -0.280937
v -0.085700 0.058659 -0.280301
v -0.064700 0.198662 -0.081006
v -0.084100 0.164548 -0.278807
v -0.119700 0.165765 -0.081470
v -0.143600 0.108271 -0.082281
v -0.073200 0.114041 -0.498441
v -0.110200 0.111054 -0.279562
v -0.044500 0.135738 -0.498135
v -0.039800 0.096525 -0.483287
v -0.039500 0.221150 -0.243105
v -0.040900 0.238568 -0.081144
v -0.264000 0.133190 -0.147236
v -0.293700 0.132020 -0.177756
v -0.180700 0.132677 -0.224351
v -0.180800 0.133044 -0.136937
v -0.180900 0.109147 -0.137274
v -0.180800 0.085249 -0.137611
v -0.180700 0.088581 -0.224973
v -0.180800 0.110379 -0.224666
v -0.180700 0.267021 -0.481782
v -0.240800 0.267021 -0.481782
v -0.237900 0.267490 -0.394467
v -0.180800 0.267490 -0.394467
v -0.237900 0.133044 -0.136937
v -0.237900 0.109147 -0.137274
v -0.237900 0.085249 -0.137611
v -0.180700 0.016912 -0.468708
v -0.180800 0.013679 -0.381345
v -0.237900 0.013679 -0.381345
v -0.240800 0.016912 -0.468708
v -0.240800 0.088581 -0.224973
v -0.240900 0.110379 -0.224666
v -0.240800 0.132677 -0.224351
v -0.293800 0.112553 -0.378750
v -0.240900 0.112553 -0.378750
v -0.240800 0.090755 -0.379058
v -0.293700 0.090755 -0.379058
v -0.293700 0.134850 -0.378436
v -0.240800 0.134850 -0.378436
v -0.499700 0.111845 -0.328555
v -0.499700 0.112553 -0.378750
v -0.499600 0.090755 -0.379058
v -0.499600 0.090047 -0.328863
v -0.499600 0.134142 -0.328241
v -0.499600 0.134850 -0.378436
v -0.038800 0.198458 0.068206
v 0.041900 0.134539 -0.498152
v 0.021300 0.150037 -0.497934
v 0.069000 0.114041 -0.498441
v 0.045100 0.094443 -0.498718
v 0.021300 0.077744 -0.498953
v 0.000000 0.077744 -0.498953
v -0.021300 0.077744 -0.498953
v -0.045100 0.094443 -0.498718
v -0.069000 0.114041 -0.498441
v -0.041900 0.134539 -0.498152
v -0.021300 0.150037 -0.497934
v 0.000000 0.150037 -0.497934
v 0.038200 0.132522 -0.482779
v 0.019400 0.146620 -0.482580
v 0.063000 0.113823 -0.483043
v 0.041100 0.095925 -0.483295
v 0.019400 0.080727 -0.483510
v 0.000000 0.080727 -0.483510
v -0.019400 0.080727 -0.483510
v -0.041100 0.095925 -0.483295
v -0.063000 0.113823 -0.483043
v -0.038200 0.132522 -0.482779
v -0.019400 0.146620 -0.482580
v 0.000000 0.146620 -0.482580
vn 0.6979 -0.2995 0.6505
vn 0.7360 -0.0099 0.6769
vn 0.6781 -0.0104 0.7349
vn 0.5725 -0.5076 0.6439
vn 0.0000 0.0141 -0.9999
vn 0.2222 0.5816 -0.7826
vn 0.0000 0.6325 -0.7745
vn 0.4068 0.6444 -0.6475
vn 0.2382 -0.0143 0.9711
vn 0.2383 -0.0143 0.9711
vn 0.2382 -0.0137 0.9711
vn 0.3892 -0.9117 0.1315
vn 0.6448 -0.7564 0.1098
vn 0.5113 -0.5936 0.6214
vn 0.2731 -0.7341 0.6217
vn 0.6792 0.4397 0.5876
vn 0.5035 0.6135 0.6084
vn 0.3877 0.6870 0.6146
vn 0.4197 0.6461 0.6375
vn 0.0000 -0.0141 0.9999
vn 0.4549 -0.4864 -0.7459
vn 0.5790 -0.5752 -0.5779
vn 0.3005 -0.7807 -0.5479
vn 0.2100 -0.5644 -0.7984
vn 0.6409 0.7611 0.1003
vn 0.5504 0.8225 0.1431
vn 0.5734 0.6253 -0.5293
vn 0.7050 0.2626 0.6588
vn 0.6980 0.2809 0.6587
vn 0.7405 -0.0095 0.6720
vn 0.6861 0.0199 -0.7272
vn 0.4547 0.5487 -0.7016
vn 0.6710 0.4246 -0.6078
vn 0.8170 0.0143 -0.5764
vn -0.0000 -0.9824 0.1869
vn -0.0000 -0.8176 0.5758
vn 0.0000 0.8010 0.5987
vn 0.0000 -0.8392 -0.5438
vn -0.0000 -0.6119 -0.7909
vn 0.0000 0.9915 0.1305
vn 0.4089 0.8887 0.2075
vn 0.1596 0.7653 -0.6235
vn 0.0000 0.6986 -0.7155
vn 0.6884 -0.3889 -0.6122
vn 0.4816 -0.5160 -0.7083
vn 0.4615 0.4979 -0.7342
vn 0.2382 -0.0131 0.9711
vn 0.2383 -0.0130 0.9711
vn 0.4170 0.8251 -0.3813
vn 0.3475 0.9349 -0.0721
vn 0.3295 0.1090 0.9378
vn 0.2109 -0.0132 0.9774
vn 0.2674 -0.1127 0.9570
vn 0.3322 -0.0142 0.9431
vn 0.3322 -0.0170 0.9431
vn 0.3322 -0.0143 0.9431
vn 0.3603 -0.8549 -0.3733
vn 0.5057 -0.8557 -0.1096
vn 0.1828 -0.0628 -0.9811
vn 0.1373 0.0136 -0.9904
vn 0.1373 0.0135 -0.9904
vn 0.1591 0.0836 -0.9837
vn 0.1833 0.0145 -0.9830
vn 0.1833 0.0158 -0.9829
vn -0.0000 0.9972 -0.0749
vn -0.0000 -0.9923 -0.1240
vn -0.0001 -0.9923 -0.1240
vn 0.0287 0.9921 -0.1222
vn -0.0085 0.9971 -0.0760
vn 0.0939 -0.0141 0.9955
vn 0.0940 -0.0140 0.9955
vn 0.0939 -0.0139 0.9955
vn 0.0939 -0.0142 0.9955
vn 0.0354 -0.9827 -0.1817
vn -0.0105 -0.9920 -0.1255
vn 1.0000 -0.0027 -0.0000
vn 1.0000 -0.0028 -0.0000
vn 1.0000 0.0027 0.0000
vn -0.0000 -0.9999 -0.0141
vn -1.0000 0.0004 0.0000
vn -1.0000 0.0001 0.0000
vn -1.0000 -0.0004 -0.0000
vn -0.0000 0.9999 0.0141
vn 1.0000 0.0028 0.0000
vn 0.1724 -0.0140 0.9849
vn 0.1724 -0.0144 0.9849
vn 0.1724 -0.0137 0.9849
vn 0.1724 -0.0134 0.9849
vn 0.1724 -0.0115 0.9850
vn -1.0000 0.0021 0.0053
vn -1.0000 0.0021 0.0054
vn 0.0000 0.3783 0.9257
vn 0.9893 0.0552 0.1350
vn 0.0000 -0.3783 -0.9257
vn -1.0000 -0.0034 0.0048
vn -1.0000 -0.0034 0.0047
vn -1.0000 -0.0035 0.0047
vn -0.0000 0.5812 -0.8137
vn 0.9876 -0.0913 0.1278
vn -0.0000 -0.5812 0.8137
vn 0.7050 -0.2811 0.6512
vn 0.6789 -0.4564 0.5751
vn 0.4193 -0.6640 0.6191
vn 0.5725 0.4893 0.6579
vn 0.0976 0.5360 0.8385
vn -0.0000 0.4928 0.8702
vn 0.8727 0.2432 -0.4234
vn 0.8464 0.4527 -0.2805
vn -0.0000 0.4980 -0.8672
vn -0.0000 0.4592 0.8883
vn 0.7357 0.3851 0.5572
vn 0.9827 0.0850 0.1644
vn -0.6980 -0.2994 0.6505
vn -0.5725 -0.5076 0.6439
vn -0.6781 -0.0104 0.7349
vn -0.7360 -0.0096 0.6769
vn -0.2222 0.5816 -0.7826
vn -0.4068 0.6444 -0.6475
vn -0.2382 -0.0143 0.9711
vn -0.2382 -0.0137 0.9711
vn -0.2383 -0.0143 0.9711
vn -0.3892 -0.9117 0.1315
vn -0.2731 -0.7341 0.6217
vn -0.5113 -0.5936 0.6214
vn -0.6448 -0.7564 0.1098
vn -0.6792 0.4398 0.5876
vn -0.4197 0.6461 0.6375
vn -0.3877 0.6870 0.6146
vn -0.5035 0.6135 0.6083
vn -0.4549 -0.4864 -0.7459
vn -0.2100 -0.5644 -0.7984
vn -0.3005 -0.7807 -0.5479
vn -0.5790 -0.5752 -0.5779
vn -0.6409 0.7611 0.1003
vn -0.5734 0.6253 -0.5293
vn -0.5504 0.8225 0.1431
vn -0.7050 0.2626 0.6588
vn -0.7405 -0.0095 0.6720
vn -0.6980 0.2809 0.6587
vn -0.6861 0.0199 -0.7272
vn -0.8170 0.0143 -0.5764
vn -0.6710 0.4246 -0.6078
vn -0.4547 0.5487 -0.7016
vn -0.1596 0.7653 -0.6235
vn -0.4089 0.8887 0.2075
vn -0.6884 -0.3889 -0.6122
vn -0.4816 -0.5160 -0.7083
vn -0.4615 0.4979 -0.7342
vn -0.2382 -0.0131 0.9711
vn -0.2383 -0.0130 0.9711
vn -0.3475 0.9349 -0.0721
vn -0.4170 0.8251 -0.3813
vn -0.2109 -0.0132 0.9774
vn -0.3295 0.1090 0.9378
vn -0.3322 -0.0143 0.9431
vn -0.3322 -0.0142 0.9431
vn -0.2674 -0.1127 0.9570
vn -0.5057 -0.8557 -0.1096
vn -0.3603 -0.8549 -0.3733
vn -0.1373 0.0135 -0.9904
vn -0.1373 0.0136 -0.9904
vn -0.1828 -0.0628 -0.9811
vn -0.1833 0.0145 -0.9830
vn -0.1591 0.0836 -0.9837
vn 0.0001 0.9972 -0.0749
vn 0.0085 0.9971 -0.0760
vn -0.0287 0.9921 -0.1222
vn -0.0939 -0.0140 0.9955
vn -0.0939 -0.0141 0.9955
vn -0.0940 -0.0138 0.9955
vn -0.0940 -0.0140 0.9955
vn 0.0105 -0.9920 -0.1255
vn -0.0354 -0.9827 -0.1817
vn -1.0000 -0.0027 -0.0000
vn -1.0000 0.0027 0.0000
vn -1.0000 -0.0028 -0.0000
vn 1.0000 0.0004 0.0000
vn 1.0000 0.0001 0.0000
vn 1.0000 -0.0004 -0.0000
vn -1.0000 0.0028 0.0000
vn -0.1724 -0.0140 0.9849
vn -0.1724 -0.0137 0.9849
vn -0.1724 -0.0163 0.9849
vn -0.1724 -0.0144 0.9849
vn -0.1724 -0.0134 0.9849
vn 1.0000 0.0021 0.0053
vn 1.0000 0.0021 0.0054
vn -0.9893 0.0552 0.1350
vn 1.0000 -0.0034 0.0048
vn 1.0000 -0.0035 0.0048
vn -0.9876 -0.0913 0.1278
vn -0.7050 -0.2811 0.6512
vn -0.6789 -0.4564 0.5751
vn -0.4193 -0.6640 0.6191
vn -0.5725 0.4893 0.6579
vn -0.0976 0.5360 0.8385
vn -0.8464 0.4527 -0.2805
vn -0.8727 0.2432 -0.4234
vn -0.9827 0.0850 0.1644
vn -0.7357 0.3851 0.5572
vn -0.4396 -0.5143 -0.7364
vn -0.4406 -0.5129 -0.7367
vn -0.4400 -0.5137 -0.7366
vn -0.4396 -0.5142 -0.7364
vn -0.4411 -0.5123 -0.7369
vn -0.4512 0.5032 -0.7370
vn -0.4512 0.5033 -0.7370
vn -0.4198 0.5461 -0.7249
vn -0.4198 0.5461 -0.7250
vn 0.0000 0.7282 -0.6854
vn 0.4198 0.5461 -0.7250
vn 0.4512 0.5033 -0.7370
vn 0.4512 0.5032 -0.7370
vn 0.4412 -0.5123 -0.7368
vn 0.4401 -0.5136 -0.7366
vn 0.4406 -0.5129 -0.7367
vn 0.4411 -0.5123 -0.7368
vn 0.4396 -0.5143 -0.7364
vn 0.4396 -0.5142 -0.7364
vn -0.0000 -0.7105 -0.7037
usemtl Default_OBJ
s 1
f 1//1 2//2 3//3
f 3//3 4//4 1//1
f 5//5 6//5 7//5
f 7//5 8//5 5//5
f 9//6 10//7 11//7
f 11//7 12//8 9//6
f 13//9 14//10 15//11
f 15//11 16//11 13//9
f 17//12 18//13 1//14
f 1//14 19//15 17//12
f 20//16 21//17 22//18
f 22//18 23//19 20//16
f 4//20 3//20 24//20
f 24//20 25//20 4//20
f 26//5 27//5 7//5
f 7//5 28//5 26//5
f 29//21 30//22 31//23
f 31//23 32//24 29//21
f 33//25 34//26 35//27
f 35//27 12//8 33//25
f 23//20 36//20 37//20
f 37//20 24//20 23//20
f 34//28 21//29 2//2
f 2//2 38//30 34//28
f 39//31 40//32 35//33
f 35//33 41//34 39//31
f 20//20 23//20 24//20
f 24//20 3//20 20//20
f 42//5 8//5 7//5
f 7//5 27//5 42//5
f 43//35 17//12 19//15
f 19//15 44//36 43//35
f 23//19 22//18 45//37
f 45//37 36//37 23//19
f 25//20 24//20 37//20
f 37//20 46//20 25//20
f 32//24 31//23 47//38
f 47//38 48//39 32//24
f 28//5 7//5 6//5
f 6//5 49//5 28//5
f 50//40 51//41 52//42
f 52//42 53//43 50//40
f 30//44 29//45 39//31
f 39//31 41//34 30//44
f 30//22 18//13 17//12
f 17//12 31//23 30//22
f 40//46 9//6 12//8
f 12//8 35//27 40//46
f 54//47 16//11 15//11
f 15//11 55//48 54//47
f 31//23 17//12 43//35
f 43//35 47//38 31//23
f 35//49 34//49 56//49
f 56//50 57//50 35//50
f 34//51 38//51 58//51
f 58//52 56//52 34//52
f 38//53 18//53 59//53
f 59//54 58//55 38//56
f 18//57 30//57 60//57
f 60//58 59//58 18//58
f 30//59 41//59 61//59
f 61//60 60//60 30//61
f 41//62 35//62 57//62
f 57//63 61//64 41//63
f 62//65 63//65 64//65
f 64//65 65//65 62//65
f 58//20 66//20 67//20
f 67//20 56//20 58//20
f 59//20 68//20 66//20
f 66//20 58//20 59//20
f 69//66 70//66 71//66
f 71//66 72//67 69//66
f 61//5 73//5 74//5
f 74//5 60//5 61//5
f 57//5 75//5 73//5
f 73//5 61//5 57//5
f 54//68 55//68 75//68
f 75//69 67//69 54//69
f 16//70 54//71 67//72
f 67//72 66//70 16//70
f 13//73 16//70 66//70
f 66//70 68//71 13//73
f 74//74 14//74 13//74
f 13//75 68//75 74//75
f 76//5 77//5 78//5
f 78//5 79//5 76//5
f 80//5 76//5 79//5
f 79//5 81//5 80//5
f 82//76 83//77 84//76
f 84//76 85//78 82//76
f 14//79 74//79 78//79
f 78//79 77//79 14//79
f 74//80 73//81 79//81
f 79//81 78//80 74//80
f 73//81 75//82 81//82
f 81//82 79//81 73//81
f 75//83 55//83 80//83
f 80//83 81//83 75//83
f 86//84 82//76 85//78
f 85//78 87//84 86//84
f 15//85 14//86 83//86
f 83//86 82//87 15//85
f 14//79 77//79 84//79
f 84//79 83//79 14//79
f 77//5 76//5 85//5
f 85//5 84//5 77//5
f 76//5 80//5 87//5
f 87//5 85//5 76//5
f 80//83 55//83 86//83
f 86//83 87//83 80//83
f 55//88 15//85 82//87
f 82//87 86//89 55//88
f 57//90 56//90 63//90
f 63//90 62//91 57//90
f 56//92 67//92 64//92
f 64//92 63//92 56//92
f 67//93 75//93 65//93
f 65//93 64//93 67//93
f 75//94 57//94 62//94
f 62//94 65//94 75//94
f 59//95 60//95 69//96
f 69//96 72//97 59//95
f 60//98 74//98 70//98
f 70//98 69//98 60//98
f 74//99 68//99 71//99
f 71//99 70//99 74//99
f 68//100 59//100 72//100
f 72//100 71//100 68//100
f 18//101 38//30 2//2
f 2//2 1//1 18//101
f 4//102 25//103 19//15
f 19//15 1//14 4//102
f 21//17 34//26 33//25
f 33//25 22//18 21//17
f 21//29 20//104 3//3
f 3//3 2//2 21//29
f 25//103 46//36 44//36
f 44//36 19//15 25//103
f 88//105 51//41 50//40
f 50//40 89//106 88//105
f 33//107 12//107 52//107
f 52//108 51//108 33//108
f 12//109 11//109 53//109
f 53//109 52//109 12//109
f 45//110 22//110 88//110
f 88//110 89//110 45//110
f 22//111 33//111 51//111
f 51//112 88//112 22//112
f 90//113 91//114 92//115
f 92//115 93//116 90//113
f 5//5 94//5 95//5
f 95//5 6//5 5//5
f 96//117 97//118 11//7
f 11//7 10//7 96//117
f 98//119 99//120 100//120
f 100//120 101//121 98//119
f 102//122 103//123 90//124
f 90//124 104//125 102//122
f 105//126 106//127 107//128
f 107//128 108//129 105//126
f 91//20 109//20 110//20
f 110//20 92//20 91//20
f 111//5 112//5 95//5
f 95//5 113//5 111//5
f 114//130 115//131 116//132
f 116//132 117//133 114//130
f 118//134 97//118 119//135
f 119//135 120//136 118//134
f 106//20 110//20 37//20
f 37//20 36//20 106//20
f 120//137 121//138 93//116
f 93//116 108//139 120//137
f 122//140 123//141 119//142
f 119//142 124//143 122//140
f 105//20 92//20 110//20
f 110//20 106//20 105//20
f 125//5 113//5 95//5
f 95//5 94//5 125//5
f 43//35 44//36 103//123
f 103//123 102//122 43//35
f 106//127 36//37 45//37
f 45//37 107//128 106//127
f 109//20 46//20 37//20
f 37//20 110//20 109//20
f 115//131 48//39 47//38
f 47//38 116//132 115//131
f 112//5 49//5 6//5
f 6//5 95//5 112//5
f 50//40 53//43 126//144
f 126//144 127//145 50//40
f 117//146 123//141 122//140
f 122//140 114//147 117//146
f 117//133 116//132 102//122
f 102//122 104//125 117//133
f 124//148 119//135 97//118
f 97//118 96//117 124//148
f 128//149 129//150 100//120
f 100//120 99//120 128//149
f 116//132 47//38 43//35
f 43//35 102//122 116//132
f 119//151 130//151 131//151
f 131//152 120//152 119//152
f 120//153 131//153 132//153
f 132//154 121//154 120//154
f 121//155 132//156 133//156
f 133//157 104//157 121//157
f 104//158 133//158 134//158
f 134//159 117//159 104//159
f 117//160 134//161 135//161
f 135//162 123//162 117//162
f 123//163 135//163 130//163
f 130//164 119//164 123//164
f 136//65 137//65 138//65
f 138//65 139//165 136//65
f 132//20 131//20 140//20
f 140//20 141//20 132//20
f 133//20 132//20 141//20
f 141//20 142//20 133//20
f 143//66 144//66 145//66
f 145//66 146//66 143//66
f 135//5 134//5 147//5
f 147//5 148//5 135//5
f 130//5 135//5 148//5
f 148//5 149//5 130//5
f 128//166 140//166 149//166
f 149//167 129//167 128//167
f 99//168 141//169 140//169
f 140//169 128//170 99//168
f 98//168 142//171 141//169
f 141//169 99//168 98//168
f 147//172 142//172 98//172
f 98//173 101//173 147//173
f 150//5 151//5 152//5
f 152//5 153//5 150//5
f 154//5 155//5 151//5
f 151//5 150//5 154//5
f 156//174 157//175 158//174
f 158//174 159//176 156//174
f 101//79 153//79 152//79
f 152//79 147//79 101//79
f 147//177 152//177 151//178
f 151//178 148//178 147//177
f 148//178 151//178 155//179
f 155//179 149//179 148//178
f 149//83 155//83 154//83
f 154//83 129//83 149//83
f 160//180 161//180 157//175
f 157//175 156//174 160//180
f 100//181 156//182 159//183
f 159//183 101//184 100//181
f 101//79 159//79 158//79
f 158//79 153//79 101//79
f 153//5 158//5 157//5
f 157//5 150//5 153//5
f 150//5 157//5 161//5
f 161//5 154//5 150//5
f 154//83 161//83 160//83
f 160//83 129//83 154//83
f 129//185 160//185 156//182
f 156//182 100//181 129//185
f 130//186 136//187 139//186
f 139//186 131//186 130//186
f 131//92 139//92 138//92
f 138//92 140//92 131//92
f 140//188 138//188 137//188
f 137//188 149//188 140//188
f 149//94 137//94 136//94
f 136//94 130//94 149//94
f 133//189 144//190 143//189
f 143//189 134//189 133//189
f 134//98 143//98 146//98
f 146//98 147//98 134//98
f 147//191 146//191 145//191
f 145//191 142//191 147//191
f 142//100 145//100 144//100
f 144//100 133//100 142//100
f 104//192 90//113 93//116
f 93//116 121//138 104//192
f 91//193 90//124 103//123
f 103//123 109//194 91//193
f 108//129 107//128 118//134
f 118//134 120//136 108//129
f 108//139 93//116 92//115
f 92//115 105//195 108//139
f 109//194 103//123 44//36
f 44//36 46//36 109//194
f 162//196 89//106 50//40
f 50//40 127//145 162//196
f 118//197 127//197 126//197
f 126//198 97//198 118//198
f 97//109 126//109 53//109
f 53//109 11//109 97//109
f 45//110 89//110 162//110
f 162//110 107//110 45//110
f 107//199 162//199 127//199
f 127//200 118//200 107//200
f 9//5 40//5 163//5
f 163//5 164//5 9//5
f 40//5 39//5 165//5
f 165//5 163//5 40//5
f 39//5 29//5 166//5
f 166//5 165//5 39//5
f 29//5 32//5 167//5
f 167//5 166//5 29//5
f 32//5 48//5 168//5
f 168//5 167//5 32//5
f 48//5 115//5 169//5
f 169//5 168//5 48//5
f 115//5 114//5 170//5
f 170//5 169//5 115//5
f 114//5 122//5 171//5
f 171//5 170//5 114//5
f 122//5 124//5 172//5
f 172//5 171//5 122//5
f 124//5 96//5 173//5
f 173//5 172//5 124//5
f 96//5 10//5 174//5
f 174//5 173//5 96//5
f 10//5 9//5 164//5
f 164//5 174//5 10//5
f 164//201 163//202 175//203
f 175//203 176//204 164//201
f 163//202 165//205 177//205
f 177//205 175//203 163//202
f 165//206 166//206 178//206
f 178//206 177//207 165//206
f 166//208 167//209 179//209
f 179//209 178//209 166//208
f 167//210 168//210 180//210
f 180//210 179//210 167//210
f 168//210 169//210 181//210
f 181//210 180//210 168//210
f 169//211 170//211 182//211
f 182//211 181//211 169//211
f 170//212 171//212 183//213
f 183//213 182//212 170//212
f 171//214 172//215 184//216
f 184//216 183//217 171//214
f 172//215 173//218 185//219
f 185//219 184//216 172//215
f 173//220 174//220 186//220
f 186//220 185//220 173//220
f 174//220 164//220 176//220
f 176//220 186//220 174//220
f 176//5 175//5 26//5
f 26//5 28//5 176//5
f 175//5 177//5 27//5
f 27//5 26//5 175//5
f 177//5 178//5 42//5
f 42//5 27//5 177//5
f 178//5 179//5 8//5
f 8//5 42//5 178//5
f 179//5 180//5 5//5
f 5//5 8//5 179//5
f 180//5 181//5 94//5
f 94//5 5//5 180//5
f 181//5 182//5 125//5
f 125//5 94//5 181//5
f 182//5 183//5 113//5
f 113//5 125//5 182//5
f 183//5 184//5 111//5
f 111//5 113//5 183//5
f 184//5 185//5 112//5
f 112//5 111//5 184//5
f 185//5 186//5 49//5
f 49//5 112//5 185//5
f 186//5 176//5 28//5
f 28//5 49//5 186//5
