# Blender 3.1.0
# www.blender.org
mtllib WallDoor.mtl
o Cube.003
v -1.000000 1.000000 0.075000
v -1.000000 0.333333 -0.075000
v -1.000000 0.333333 0.075000
v 0.333333 1.000000 -0.075000
v 1.000000 0.333333 -0.075000
v 0.333333 0.333333 -0.075000
v 1.000000 1.000000 -0.075000
v 1.000000 0.333333 0.075000
v -0.333333 1.000000 0.075000
v -0.333333 0.333333 0.075000
v 1.000000 -1.000000 -0.075000
v 0.333333 -1.000000 0.075000
v 0.333333 -1.000000 -0.075000
v -1.000000 1.000000 -0.075000
v -0.333333 1.000000 -0.075000
v -0.333333 -0.333333 0.075000
v -1.000000 -1.000000 0.075000
v -0.333333 -1.000000 0.075000
v -1.000000 -0.333333 0.075000
v 1.000000 -0.333333 -0.075000
v 1.000000 -1.000000 0.075000
v 1.000000 -0.333333 0.075000
v 0.333333 -0.333333 -0.075000
v -1.000000 -1.000000 -0.075000
v -1.000000 -0.333333 -0.075000
v -0.333333 -0.333333 -0.075000
v 0.333333 -0.333333 0.075000
v 0.333333 0.333333 0.075000
v -0.333333 -1.000000 -0.075000
v -0.333333 0.333333 -0.075000
v 1.000000 1.000000 0.075000
v 0.333333 1.000000 0.075000
vn -0.2500 -0.0000 -0.0000
vn -0.0000 -0.0000 -0.2500
vn 0.2500 -0.0000 -0.0000
vn -0.0000 -0.0000 0.2500
vn -0.0000 -0.2500 -0.0000
vn -0.0000 0.2500 -0.0000
vt 0.625000 0.000000
vt 0.625000 1.000000
vt 0.875000 0.750000
vt 0.541667 0.250000
vt 0.541667 1.000000
vt 0.541667 0.000000
vt 0.708333 0.500000
vt 0.625000 0.416667
vt 0.541667 0.500000
vt 0.541667 0.416667
vt 0.625000 0.500000
vt 0.541667 0.750000
vt 0.791667 0.750000
vt 0.625000 0.916667
vt 0.541667 0.916667
vt 0.375000 0.500000
vt 0.291667 0.750000
vt 0.375000 0.833333
vt 0.375000 0.416667
vt 0.291667 0.500000
vt 0.875000 0.500000
vt 0.625000 0.250000
vt 0.791667 0.500000
vt 0.625000 0.333333
vt 0.458333 0.916667
vt 0.375000 0.000000
vt 0.375000 1.000000
vt 0.125000 0.750000
vt 0.375000 0.916667
vt 0.208333 0.750000
vt 0.458333 1.000000
vt 0.458333 0.000000
vt 0.458333 0.500000
vt 0.375000 0.750000
vt 0.458333 0.750000
vt 0.458333 0.416667
vt 0.125000 0.500000
vt 0.375000 0.250000
vt 0.458333 0.250000
vt 0.458333 0.333333
vt 0.458333 0.833333
vt 0.541667 0.833333
vt 0.375000 0.333333
vt 0.208333 0.500000
vt 0.541667 0.333333
vt 0.625000 0.750000
vt 0.708333 0.750000
vt 0.625000 0.833333
s 1
usemtl Default_OBJ.001
f 1/1/1 2/4/1 3/6/1
f 4/8/2 5/9/2 6/10/2
f 7/11/3 8/12/3 5/9/3
f 9/14/4 3/5/4 10/15/4
f 11/16/5 12/17/5 13/20/5
f 14/21/6 9/13/6 15/23/6
f 16/25/4 17/27/4 18/29/4
f 10/15/4 19/31/4 16/25/4
f 20/33/3 21/34/3 11/16/3
f 5/9/3 22/35/3 20/33/3
f 23/36/2 11/16/2 13/19/2
f 6/10/2 20/33/2 23/36/2
f 19/32/1 24/38/1 17/26/1
f 3/6/1 25/39/1 19/32/1
f 2/4/2 26/40/2 25/39/2
f 6/10/1 27/41/1 28/42/1
f 25/39/2 29/43/2 24/38/2
f 16/25/3 30/45/3 10/15/3
f 8/12/4 27/41/4 22/35/4
f 23/36/1 12/18/1 27/41/1
f 22/35/4 12/18/4 21/34/4
f 18/29/3 26/40/3 16/25/3
f 4/7/6 31/46/6 7/11/6
f 15/23/6 32/47/6 4/7/6
f 29/44/5 17/28/5 24/37/5
f 6/10/5 10/15/5 30/45/5
f 31/46/4 28/42/4 8/12/4
f 32/48/4 10/15/4 28/42/4
f 14/22/2 30/45/2 2/4/2
f 15/24/2 6/10/2 30/45/2
f 1/1/1 14/22/1 2/4/1
f 4/8/2 7/11/2 5/9/2
f 7/11/3 31/46/3 8/12/3
f 9/14/4 1/2/4 3/5/4
f 11/16/5 21/34/5 12/17/5
f 14/21/6 1/3/6 9/13/6
f 16/25/4 19/31/4 17/27/4
f 10/15/4 3/5/4 19/31/4
f 20/33/3 22/35/3 21/34/3
f 5/9/3 8/12/3 22/35/3
f 23/36/2 20/33/2 11/16/2
f 6/10/2 5/9/2 20/33/2
f 19/32/1 25/39/1 24/38/1
f 3/6/1 2/4/1 25/39/1
f 2/4/2 30/45/2 26/40/2
f 6/10/1 23/36/1 27/41/1
f 25/39/2 26/40/2 29/43/2
f 16/25/3 26/40/3 30/45/3
f 8/12/4 28/42/4 27/41/4
f 23/36/1 13/20/1 12/18/1
f 22/35/4 27/41/4 12/18/4
f 18/29/3 29/44/3 26/40/3
f 4/7/6 32/47/6 31/46/6
f 15/23/6 9/13/6 32/47/6
f 29/44/5 18/30/5 17/28/5
f 6/10/5 28/42/5 10/15/5
f 31/46/4 32/48/4 28/42/4
f 32/48/4 9/14/4 10/15/4
f 14/22/2 15/24/2 30/45/2
f 15/24/2 4/8/2 6/10/2
