# Blender 3.1.0
# www.blender.org
mtllib WallDoubleDoor.mtl
o Cube.004
v -1.000000 1.000000 0.075000
v -1.000000 0.749650 -0.075000
v -1.000000 0.749650 0.075000
v 0.751673 1.000000 -0.075000
v 1.000000 0.749650 -0.075000
v 0.751673 0.749650 -0.075000
v 1.000000 1.000000 -0.075000
v 1.000000 0.749650 0.075000
v -0.751673 1.000000 0.075000
v -0.751673 0.749650 0.075000
v 1.000000 -1.000000 -0.075000
v 0.751673 -1.000000 0.075000
v 0.751673 -1.000000 -0.075000
v -1.000000 1.000000 -0.075000
v -0.751673 1.000000 -0.075000
v -0.751673 -0.749650 0.075000
v -1.000000 -1.000000 0.075000
v -0.751673 -1.000000 0.075000
v -1.000000 0.495735 0.075000
v -0.751673 0.495735 0.075000
v 1.000000 -0.749650 -0.075000
v 1.000000 -1.000000 0.075000
v 1.000000 0.495735 0.075000
v 1.000000 0.495735 -0.075000
v 0.751673 -0.749650 -0.075000
v 0.751673 0.495735 -0.075000
v -1.000000 -0.749650 0.075000
v -1.000000 -1.000000 -0.075000
v -1.000000 0.495735 -0.075000
v -0.751673 0.495735 -0.075000
v 0.000000 0.749650 -0.075000
v 0.000000 0.495735 -0.075000
v -1.000000 -0.749650 -0.075000
v -0.751673 -1.000000 -0.075000
v 0.751673 -0.749650 0.075000
v 0.751673 0.495735 0.075000
v 0.000000 0.749650 0.075000
v 0.000000 0.495735 0.075000
v 1.000000 -0.749650 0.075000
v -0.751673 -0.749650 -0.075000
v 1.000000 1.000000 0.075000
v 0.000000 1.000000 0.075000
v 0.000000 1.000000 -0.075000
v 0.751673 0.749650 0.075000
v -0.751673 0.749650 -0.075000
v 0.751673 1.000000 0.075000
vn -0.2500 -0.0000 -0.0000
vn -0.0000 -0.0000 -0.2500
vn 0.2500 -0.0000 -0.0000
vn -0.0000 -0.0000 0.2500
vn -0.0000 -0.2500 -0.0000
vn -0.0000 0.2500 -0.0000
vt 0.625000 0.000000
vt 0.625000 1.000000
vt 0.875000 0.750000
vt 0.541667 0.250000
vt 0.541667 1.000000
vt 0.541667 0.000000
vt 0.708333 0.500000
vt 0.625000 0.416667
vt 0.541667 0.500000
vt 0.541667 0.416667
vt 0.625000 0.500000
vt 0.541667 0.750000
vt 0.791667 0.750000
vt 0.625000 0.916667
vt 0.541667 0.916667
vt 0.375000 0.500000
vt 0.375000 0.833333
vt 0.291667 0.750000
vt 0.375000 0.416667
vt 0.291667 0.500000
vt 0.875000 0.500000
vt 0.625000 0.250000
vt 0.791667 0.500000
vt 0.625000 0.333333
vt 0.458333 0.916667
vt 0.375000 0.000000
vt 0.375000 1.000000
vt 0.125000 0.750000
vt 0.375000 0.916667
vt 0.208333 0.750000
vt 0.500000 0.000000
vt 0.500000 1.000000
vt 0.500000 0.916667
vt 0.458333 0.500000
vt 0.375000 0.750000
vt 0.500000 0.750000
vt 0.500000 0.500000
vt 0.458333 0.416667
vt 0.500000 0.416667
vt 0.458333 0.000000
vt 0.458333 1.000000
vt 0.125000 0.500000
vt 0.375000 0.250000
vt 0.500000 0.250000
vt 0.500000 0.333333
vt 0.541667 0.375000
vt 0.500000 0.375000
vt 0.458333 0.250000
vt 0.375000 0.333333
vt 0.208333 0.500000
vt 0.458333 0.833333
vt 0.500000 0.833333
vt 0.541667 0.875000
vt 0.500000 0.875000
vt 0.458333 0.750000
vt 0.458333 0.333333
vt 0.625000 0.750000
vt 0.625000 0.875000
vt 0.750000 0.750000
vt 0.625000 0.375000
vt 0.750000 0.500000
vt 0.541667 0.833333
vt 0.541667 0.333333
vt 0.625000 0.833333
vt 0.708333 0.750000
s 1
usemtl Default_OBJ.002
f 1/1/1 2/4/1 3/6/1
f 4/8/2 5/9/2 6/10/2
f 7/11/3 8/12/3 5/9/3
f 9/14/4 3/5/4 10/15/4
f 11/16/5 12/18/5 13/20/5
f 14/21/6 9/13/6 15/23/6
f 16/25/4 17/27/4 18/29/4
f 10/15/4 19/32/4 20/33/4
f 21/34/3 22/35/3 11/16/3
f 5/9/3 23/36/3 24/37/3
f 25/38/2 11/16/2 13/19/2
f 6/10/2 24/37/2 26/39/2
f 27/40/1 28/43/1 17/26/1
f 3/6/1 29/44/1 19/31/1
f 2/4/2 30/45/2 29/44/2
f 31/46/2 26/39/2 32/47/2
f 33/48/2 34/49/2 28/43/2
f 26/39/1 35/51/1 36/52/1
f 8/12/4 36/52/4 23/36/4
f 37/53/4 20/33/4 38/54/4
f 39/55/4 12/17/4 22/35/4
f 18/29/3 40/56/3 16/25/3
f 4/7/6 41/57/6 7/11/6
f 15/23/6 42/59/6 43/61/6
f 34/50/5 17/28/5 28/42/5
f 20/33/5 32/47/5 38/54/5
f 41/57/4 44/62/4 8/12/4
f 42/58/4 10/15/4 37/53/4
f 14/22/2 45/63/2 2/4/2
f 43/60/2 6/10/2 31/46/2
f 23/36/4 35/51/4 39/55/4
f 29/44/2 40/56/2 33/48/2
f 19/31/1 33/48/1 27/40/1
f 26/39/2 21/34/2 25/38/2
f 24/37/3 39/55/3 21/34/3
f 20/33/4 27/41/4 16/25/4
f 15/24/2 31/46/2 45/63/2
f 46/64/4 37/53/4 44/62/4
f 36/52/5 32/47/5 26/39/5
f 43/61/6 46/65/6 4/7/6
f 12/18/1 25/38/1 13/20/1
f 44/62/4 38/54/4 36/52/4
f 30/45/3 16/25/3 40/56/3
f 45/63/2 32/47/2 30/45/2
f 1/1/1 14/22/1 2/4/1
f 4/8/2 7/11/2 5/9/2
f 7/11/3 41/57/3 8/12/3
f 9/14/4 1/2/4 3/5/4
f 11/16/5 22/35/5 12/18/5
f 14/21/6 1/3/6 9/13/6
f 16/25/4 27/41/4 17/27/4
f 10/15/4 3/5/4 19/32/4
f 21/34/3 39/55/3 22/35/3
f 5/9/3 8/12/3 23/36/3
f 25/38/2 21/34/2 11/16/2
f 6/10/2 5/9/2 24/37/2
f 27/40/1 33/48/1 28/43/1
f 3/6/1 2/4/1 29/44/1
f 2/4/2 45/63/2 30/45/2
f 31/46/2 6/10/2 26/39/2
f 33/48/2 40/56/2 34/49/2
f 26/39/1 25/38/1 35/51/1
f 8/12/4 44/62/4 36/52/4
f 37/53/4 10/15/4 20/33/4
f 39/55/4 35/51/4 12/17/4
f 18/29/3 34/50/3 40/56/3
f 4/7/6 46/65/6 41/57/6
f 15/23/6 9/13/6 42/59/6
f 34/50/5 18/30/5 17/28/5
f 20/33/5 30/45/5 32/47/5
f 41/57/4 46/64/4 44/62/4
f 42/58/4 9/14/4 10/15/4
f 14/22/2 15/24/2 45/63/2
f 43/60/2 4/8/2 6/10/2
f 23/36/4 36/52/4 35/51/4
f 29/44/2 30/45/2 40/56/2
f 19/31/1 29/44/1 33/48/1
f 26/39/2 24/37/2 21/34/2
f 24/37/3 23/36/3 39/55/3
f 20/33/4 19/32/4 27/41/4
f 15/24/2 43/60/2 31/46/2
f 46/64/4 42/58/4 37/53/4
f 36/52/5 38/54/5 32/47/5
f 43/61/6 42/59/6 46/65/6
f 12/18/1 35/51/1 25/38/1
f 44/62/4 37/53/4 38/54/4
f 30/45/3 20/33/3 16/25/3
f 45/63/2 31/46/2 32/47/2
